<svg width="183" height="48" viewBox="0 0 183 48" fill="none" xmlns="http://www.w3.org/2000/svg">
<path d="M28.6552 40C25.2881 40 22.2392 38.1483 20.7 35.1605C20.6334 35.035 20.5742 34.9096 20.5149 34.7842C19.9747 33.6112 18.9461 32.7333 17.6955 32.3866C17.3107 32.2833 16.9184 32.2317 16.5336 32.2317C15.653 32.2317 14.7798 32.4972 14.0398 33.0063C13.7142 33.2276 13.3737 33.4342 13.0185 33.6186C11.7605 34.2604 10.3471 34.6072 8.94102 34.6072C5.57392 34.6072 2.52503 32.7554 0.985786 29.7676C-1.26388 25.4002 0.467771 20.0221 4.8487 17.772C6.10673 17.1302 7.52017 16.7835 8.92621 16.7835C12.2933 16.7835 15.3422 18.6352 16.8814 21.623C16.948 21.7484 17.0072 21.8738 17.0665 21.9993C17.6067 23.1723 18.6353 24.0502 19.8859 24.3969C20.2707 24.5002 20.663 24.5518 21.0478 24.5518C21.9284 24.5518 22.8016 24.2862 23.5416 23.7772C23.8672 23.5559 24.2077 23.3493 24.5629 23.1649C25.8801 22.4862 26.7755 21.1951 26.9235 19.7197C27.0715 18.2516 26.4721 16.7982 25.3177 15.8687C24.3409 15.0867 23.549 14.1129 22.9718 12.9841C20.7222 8.61675 22.4538 3.23866 26.8347 0.988565C28.0928 0.346736 29.5062 0 30.9123 0C34.2793 0 37.3282 1.85172 38.8675 4.83954C38.9267 4.96496 38.9933 5.083 39.0451 5.20841C39.5853 6.39616 40.6287 7.28145 41.8868 7.6208C42.2642 7.72409 42.649 7.77573 43.0338 7.77573C43.9292 7.77573 44.8099 7.50277 45.5573 6.97898C45.8607 6.76503 46.1863 6.56584 46.5415 6.38879C47.7995 5.74696 49.213 5.40022 50.619 5.40022C53.9861 5.40022 57.035 7.25194 58.5742 10.2398C60.8239 14.6072 59.0923 19.9852 54.7113 22.2353C53.4533 22.8772 52.0399 23.2239 50.6338 23.2239C47.2667 23.2239 44.2178 21.3722 42.6786 18.3844C42.6194 18.2663 42.5528 18.1335 42.4936 18.0007C41.9534 16.8277 40.9173 15.9498 39.6667 15.6031C39.2819 15.4998 38.8971 15.4482 38.5049 15.4482C37.6242 15.4482 36.751 15.7138 36.011 16.2228C35.6928 16.4441 35.345 16.6507 34.9972 16.8277C33.6799 17.5065 32.7919 18.8049 32.6365 20.273C32.4885 21.7411 33.0879 23.1944 34.2423 24.1166C35.2192 24.8986 36.011 25.8724 36.5882 27.0011C38.8379 31.3685 37.1062 36.7466 32.7253 38.9893C31.4673 39.6311 30.0538 39.9779 28.6478 39.9779L28.6552 40Z" fill="white"/>
<path d="M28.6552 40C25.2881 40 22.2392 38.1483 20.7 35.1605C20.6334 35.035 20.5742 34.9096 20.5149 34.7842C19.9747 33.6112 18.9461 32.7333 17.6955 32.3866C17.3107 32.2833 16.9184 32.2317 16.5336 32.2317C15.653 32.2317 14.7798 32.4972 14.0398 33.0063C13.7142 33.2276 13.3737 33.4342 13.0185 33.6186C11.7605 34.2604 10.3471 34.6072 8.94102 34.6072C5.57392 34.6072 2.52503 32.7554 0.985786 29.7676C-1.26388 25.4002 0.467771 20.0221 4.8487 17.772C6.10673 17.1302 7.52017 16.7835 8.92621 16.7835C12.2933 16.7835 15.3422 18.6352 16.8814 21.623C16.948 21.7484 17.0072 21.8738 17.0665 21.9993C17.6067 23.1723 18.6353 24.0502 19.8859 24.3969C20.2707 24.5002 20.663 24.5518 21.0478 24.5518C21.9284 24.5518 22.8016 24.2862 23.5416 23.7772C23.8672 23.5559 24.2077 23.3493 24.5629 23.1649C25.8801 22.4862 26.7755 21.1951 26.9235 19.7197C27.0715 18.2516 26.4721 16.7982 25.3177 15.8687C24.3409 15.0867 23.549 14.1129 22.9718 12.9841C20.7222 8.61675 22.4538 3.23866 26.8347 0.988565C28.0928 0.346736 29.5062 0 30.9123 0C34.2793 0 37.3282 1.85172 38.8675 4.83954C38.9267 4.96496 38.9933 5.083 39.0451 5.20841C39.5853 6.39616 40.6287 7.28145 41.8868 7.6208C42.2642 7.72409 42.649 7.77573 43.0338 7.77573C43.9292 7.77573 44.8099 7.50277 45.5573 6.97898C45.8607 6.76503 46.1863 6.56584 46.5415 6.38879C47.7995 5.74696 49.213 5.40022 50.619 5.40022C53.9861 5.40022 57.035 7.25194 58.5742 10.2398C60.8239 14.6072 59.0923 19.9852 54.7113 22.2353C53.4533 22.8772 52.0399 23.2239 50.6338 23.2239C47.2667 23.2239 44.2178 21.3722 42.6786 18.3844C42.6194 18.2663 42.5528 18.1335 42.4936 18.0007C41.9534 16.8277 40.9173 15.9498 39.6667 15.6031C39.2819 15.4998 38.8971 15.4482 38.5049 15.4482C37.6242 15.4482 36.751 15.7138 36.011 16.2228C35.6928 16.4441 35.345 16.6507 34.9972 16.8277C33.6799 17.5065 32.7919 18.8049 32.6365 20.273C32.4885 21.7411 33.0879 23.1944 34.2423 24.1166C35.2192 24.8986 36.011 25.8724 36.5882 27.0011C38.8379 31.3685 37.1062 36.7466 32.7253 38.9893C31.4673 39.6311 30.0538 39.9779 28.6478 39.9779L28.6552 40Z" fill="white"/>
<path d="M28.6552 40C25.2881 40 22.2392 38.1483 20.7 35.1605C20.6334 35.035 20.5742 34.9096 20.5149 34.7842C19.9747 33.6112 18.9461 32.7333 17.6955 32.3866C17.3107 32.2833 16.9184 32.2317 16.5336 32.2317C15.653 32.2317 14.7798 32.4972 14.0398 33.0063C13.7142 33.2276 13.3737 33.4342 13.0185 33.6186C11.7605 34.2604 10.3471 34.6072 8.94102 34.6072C5.57392 34.6072 2.52503 32.7554 0.985786 29.7676C-1.26388 25.4002 0.467771 20.0221 4.8487 17.772C6.10673 17.1302 7.52017 16.7835 8.92621 16.7835C12.2933 16.7835 15.3422 18.6352 16.8814 21.623C16.948 21.7484 17.0072 21.8738 17.0665 21.9993C17.6067 23.1723 18.6353 24.0502 19.8859 24.3969C20.2707 24.5002 20.663 24.5518 21.0478 24.5518C21.9284 24.5518 22.8016 24.2862 23.5416 23.7772C23.8672 23.5559 24.2077 23.3493 24.5629 23.1649C25.8801 22.4862 26.7755 21.1951 26.9235 19.7197C27.0715 18.2516 26.4721 16.7982 25.3177 15.8687C24.3409 15.0867 23.549 14.1129 22.9718 12.9841C20.7222 8.61675 22.4538 3.23866 26.8347 0.988565C28.0928 0.346736 29.5062 0 30.9123 0C34.2793 0 37.3282 1.85172 38.8675 4.83954C38.9267 4.96496 38.9933 5.083 39.0451 5.20841C39.5853 6.39616 40.6287 7.28145 41.8868 7.6208C42.2642 7.72409 42.649 7.77573 43.0338 7.77573C43.9292 7.77573 44.8099 7.50277 45.5573 6.97898C45.8607 6.76503 46.1863 6.56584 46.5415 6.38879C47.7995 5.74696 49.213 5.40022 50.619 5.40022C53.9861 5.40022 57.035 7.25194 58.5742 10.2398C60.8239 14.6072 59.0923 19.9852 54.7113 22.2353C53.4533 22.8772 52.0399 23.2239 50.6338 23.2239C47.2667 23.2239 44.2178 21.3722 42.6786 18.3844C42.6194 18.2663 42.5528 18.1335 42.4936 18.0007C41.9534 16.8277 40.9173 15.9498 39.6667 15.6031C39.2819 15.4998 38.8971 15.4482 38.5049 15.4482C37.6242 15.4482 36.751 15.7138 36.011 16.2228C35.6928 16.4441 35.345 16.6507 34.9972 16.8277C33.6799 17.5065 32.7919 18.8049 32.6365 20.273C32.4885 21.7411 33.0879 23.1944 34.2423 24.1166C35.2192 24.8986 36.011 25.8724 36.5882 27.0011C38.8379 31.3685 37.1062 36.7466 32.7253 38.9893C31.4673 39.6311 30.0538 39.9779 28.6478 39.9779L28.6552 40Z" fill="white"/>
<path d="M28.6552 40C25.2881 40 22.2392 38.1483 20.7 35.1605C20.6334 35.035 20.5742 34.9096 20.5149 34.7842C19.9747 33.6112 18.9461 32.7333 17.6955 32.3866C17.3107 32.2833 16.9184 32.2317 16.5336 32.2317C15.653 32.2317 14.7798 32.4972 14.0398 33.0063C13.7142 33.2276 13.3737 33.4342 13.0185 33.6186C11.7605 34.2604 10.3471 34.6072 8.94102 34.6072C5.57392 34.6072 2.52503 32.7554 0.985786 29.7676C-1.26388 25.4002 0.467771 20.0221 4.8487 17.772C6.10673 17.1302 7.52017 16.7835 8.92621 16.7835C12.2933 16.7835 15.3422 18.6352 16.8814 21.623C16.948 21.7484 17.0072 21.8738 17.0665 21.9993C17.6067 23.1723 18.6353 24.0502 19.8859 24.3969C20.2707 24.5002 20.663 24.5518 21.0478 24.5518C21.9284 24.5518 22.8016 24.2862 23.5416 23.7772C23.8672 23.5559 24.2077 23.3493 24.5629 23.1649C25.8801 22.4862 26.7755 21.1951 26.9235 19.7197C27.0715 18.2516 26.4721 16.7982 25.3177 15.8687C24.3409 15.0867 23.549 14.1129 22.9718 12.9841C20.7222 8.61675 22.4538 3.23866 26.8347 0.988565C28.0928 0.346736 29.5062 0 30.9123 0C34.2793 0 37.3282 1.85172 38.8675 4.83954C38.9267 4.96496 38.9933 5.083 39.0451 5.20841C39.5853 6.39616 40.6287 7.28145 41.8868 7.6208C42.2642 7.72409 42.649 7.77573 43.0338 7.77573C43.9292 7.77573 44.8099 7.50277 45.5573 6.97898C45.8607 6.76503 46.1863 6.56584 46.5415 6.38879C47.7995 5.74696 49.213 5.40022 50.619 5.40022C53.9861 5.40022 57.035 7.25194 58.5742 10.2398C60.8239 14.6072 59.0923 19.9852 54.7113 22.2353C53.4533 22.8772 52.0399 23.2239 50.6338 23.2239C47.2667 23.2239 44.2178 21.3722 42.6786 18.3844C42.6194 18.2663 42.5528 18.1335 42.4936 18.0007C41.9534 16.8277 40.9173 15.9498 39.6667 15.6031C39.2819 15.4998 38.8971 15.4482 38.5049 15.4482C37.6242 15.4482 36.751 15.7138 36.011 16.2228C35.6928 16.4441 35.345 16.6507 34.9972 16.8277C33.6799 17.5065 32.7919 18.8049 32.6365 20.273C32.4885 21.7411 33.0879 23.1944 34.2423 24.1166C35.2192 24.8986 36.011 25.8724 36.5882 27.0011C38.8379 31.3685 37.1062 36.7466 32.7253 38.9893C31.4673 39.6311 30.0538 39.9779 28.6478 39.9779L28.6552 40Z" fill="white"/>
<path d="M85.4801 35.224C83.9227 35.224 82.5147 34.9573 81.2561 34.424C80.0187 33.8907 79.0374 33.1227 78.3121 32.12C77.5867 31.1173 77.2134 29.9333 77.1921 28.568H81.9921C82.0561 29.4853 82.3761 30.2107 82.9521 30.744C83.5494 31.2773 84.3601 31.544 85.3841 31.544C86.4294 31.544 87.2507 31.2987 87.8481 30.808C88.4454 30.296 88.7441 29.6347 88.7441 28.824C88.7441 28.1627 88.5414 27.6187 88.1361 27.192C87.7307 26.7653 87.2187 26.4347 86.6001 26.2C86.0027 25.944 85.1707 25.6667 84.1041 25.368C82.6534 24.9413 81.4694 24.5253 80.5521 24.12C79.6561 23.6933 78.8774 23.064 78.2161 22.232C77.5761 21.3787 77.2561 20.248 77.2561 18.84C77.2561 17.5173 77.5867 16.3653 78.2481 15.384C78.9094 14.4027 79.8374 13.656 81.0321 13.144C82.2267 12.6107 83.5921 12.344 85.1281 12.344C87.4321 12.344 89.2987 12.9093 90.7281 14.04C92.1787 15.1493 92.9787 16.7067 93.1281 18.712H88.2001C88.1574 17.944 87.8267 17.3147 87.2081 16.824C86.6107 16.312 85.8107 16.056 84.8081 16.056C83.9334 16.056 83.2294 16.28 82.6961 16.728C82.1841 17.176 81.9281 17.8267 81.9281 18.68C81.9281 19.2773 82.1201 19.7787 82.5041 20.184C82.9094 20.568 83.4001 20.888 83.9761 21.144C84.5734 21.3787 85.4054 21.656 86.4721 21.976C87.9227 22.4027 89.1067 22.8293 90.0241 23.256C90.9414 23.6827 91.7307 24.3227 92.3921 25.176C93.0534 26.0293 93.3841 27.1493 93.3841 28.536C93.3841 29.7307 93.0747 30.84 92.4561 31.864C91.8374 32.888 90.9307 33.7093 89.7361 34.328C88.5414 34.9253 87.1227 35.224 85.4801 35.224ZM102.484 20.952V29.528C102.484 30.1253 102.623 30.5627 102.9 30.84C103.199 31.096 103.689 31.224 104.372 31.224H106.452V35H103.636C99.8601 35 97.9721 33.1653 97.9721 29.496V20.952H95.8601V17.272H97.9721V12.888H102.484V17.272H106.452V20.952H102.484ZM126.154 25.752C126.154 26.392 126.112 26.968 126.026 27.48H113.066C113.173 28.76 113.621 29.7627 114.41 30.488C115.2 31.2133 116.17 31.576 117.322 31.576C118.986 31.576 120.17 30.8613 120.874 29.432H125.706C125.194 31.1387 124.213 32.5467 122.762 33.656C121.312 34.744 119.53 35.288 117.418 35.288C115.712 35.288 114.176 34.9147 112.81 34.168C111.466 33.4 110.41 32.3227 109.642 30.936C108.896 29.5493 108.522 27.9493 108.522 26.136C108.522 24.3013 108.896 22.6907 109.642 21.304C110.389 19.9173 111.434 18.8507 112.778 18.104C114.122 17.3573 115.669 16.984 117.418 16.984C119.104 16.984 120.608 17.3467 121.93 18.072C123.274 18.7973 124.309 19.832 125.034 21.176C125.781 22.4987 126.154 24.024 126.154 25.752ZM121.514 24.472C121.493 23.32 121.077 22.4027 120.266 21.72C119.456 21.016 118.464 20.664 117.29 20.664C116.181 20.664 115.242 21.0053 114.474 21.688C113.728 22.3493 113.269 23.2773 113.098 24.472H121.514ZM128.272 26.072C128.272 24.28 128.624 22.6907 129.328 21.304C130.054 19.9173 131.024 18.8507 132.24 18.104C133.478 17.3573 134.854 16.984 136.368 16.984C137.691 16.984 138.843 17.2507 139.824 17.784C140.827 18.3173 141.627 18.9893 142.224 19.8V17.272H146.736V35H142.224V32.408C141.648 33.24 140.848 33.9333 139.824 34.488C138.822 35.0213 137.659 35.288 136.336 35.288C134.843 35.288 133.478 34.904 132.24 34.136C131.024 33.368 130.054 32.2907 129.328 30.904C128.624 29.496 128.272 27.8853 128.272 26.072ZM142.224 26.136C142.224 25.048 142.011 24.12 141.584 23.352C141.158 22.5627 140.582 21.9653 139.856 21.56C139.131 21.1333 138.352 20.92 137.52 20.92C136.688 20.92 135.92 21.1227 135.216 21.528C134.512 21.9333 133.936 22.5307 133.488 23.32C133.062 24.088 132.848 25.0053 132.848 26.072C132.848 27.1387 133.062 28.0773 133.488 28.888C133.936 29.6773 134.512 30.2853 135.216 30.712C135.942 31.1387 136.71 31.352 137.52 31.352C138.352 31.352 139.131 31.1493 139.856 30.744C140.582 30.3173 141.158 29.72 141.584 28.952C142.011 28.1627 142.224 27.224 142.224 26.136ZM173.128 17.016C175.304 17.016 177.053 17.688 178.376 19.032C179.72 20.3547 180.392 22.2107 180.392 24.6V35H175.912V25.208C175.912 23.8213 175.56 22.7653 174.856 22.04C174.152 21.2933 173.192 20.92 171.976 20.92C170.76 20.92 169.789 21.2933 169.064 22.04C168.36 22.7653 168.008 23.8213 168.008 25.208V35H163.528V25.208C163.528 23.8213 163.176 22.7653 162.472 22.04C161.768 21.2933 160.808 20.92 159.592 20.92C158.354 20.92 157.373 21.2933 156.648 22.04C155.944 22.7653 155.592 23.8213 155.592 25.208V35H151.112V17.272H155.592V19.416C156.168 18.6693 156.904 18.0827 157.8 17.656C158.717 17.2293 159.72 17.016 160.808 17.016C162.194 17.016 163.432 17.3147 164.52 17.912C165.608 18.488 166.45 19.32 167.048 20.408C167.624 19.384 168.456 18.5627 169.544 17.944C170.653 17.3253 171.848 17.016 173.128 17.016Z" fill="white"/>
</svg>
